<svg width="910" height="505" viewBox="0 0 910 505" fill="none" xmlns="http://www.w3.org/2000/svg">
<path d="M910 505H0V0H910V505ZM283.555 275C277.227 275 271.914 279.687 271.133 285.936L260 374.98C260 381.893 265.586 387.479 272.5 387.479H328.75L310.391 461.175C310.156 462.073 310.039 462.971 310.039 463.869C310.039 470.001 315.039 475 321.172 475H322.305C326.328 475 330.117 473.008 332.422 469.649L407.5 359.905C409.141 357.523 410 354.711 410 351.821C410 343.893 403.555 337.488 395.664 337.488H341.25L359.336 289.294C359.766 288.122 360 286.834 360 285.584C360 279.726 355.273 275 349.414 275H283.555ZM771 264C715.766 264 671 305.992 671 357.75C671 387.359 685.648 413.766 708.5 430.953V445.25C708.5 455.602 716.898 464 727.25 464H739.75V448.375C739.75 443.18 743.93 439 749.125 439C754.32 439 758.5 443.18 758.5 448.375V464H783.5V448.375C783.5 443.18 787.68 439 792.875 439C798.07 439 802.25 443.18 802.25 448.375V464H814.75C825.102 464 833.5 455.602 833.5 445.25V430.953C856.352 413.766 871 387.359 871 357.75C871 305.992 826.234 264 771 264ZM533 261C491.594 261 458 294.594 458 336V441.547C458 445.375 461.125 448.5 464.953 448.5C466.516 448.5 468.039 447.953 469.289 446.977L473.664 443.461C478.898 439.281 486.477 439.945 490.891 444.984L502.805 458.656C504.133 460.141 506.008 461 508 461C509.992 461 511.906 460.141 513.195 458.656L523.586 446.742C528.586 441.039 537.453 441.039 542.414 446.742L552.805 458.656C554.133 460.141 556.008 461 558 461C559.992 461 561.906 460.141 563.195 458.656L575.109 444.984C579.523 439.945 587.102 439.281 592.336 443.461L596.711 446.977C597.961 447.953 599.484 448.5 601.047 448.5C604.875 448.5 608 445.375 608 441.547V336C608 294.594 574.406 261 533 261ZM63 328.75C49.2109 328.75 38 339.961 38 353.75V364.297C38 377.539 43.2734 390.273 52.6484 399.648L57.1797 404.18C62.5312 409.531 68.7422 413.789 75.5 416.875V447.5C75.5 454.414 81.0859 460 88 460H150.5C157.414 460 163 454.414 163 447.5V410C178.195 398.594 188 380.43 188 360V356.641C184.328 358.789 180.07 360 175.5 360C164.602 360 155.305 353.008 151.906 343.281C147.922 345.938 143.156 347.5 138 347.5C133.43 347.5 129.172 346.25 125.5 344.141V344.375C125.5 359.922 112.922 372.5 97.375 372.5H75.5C72.0625 372.5 69.25 369.688 69.25 366.25C69.25 362.812 72.0625 360 75.5 360H97.375C106.008 360 113 353.008 113 344.375C113 335.742 106.008 328.75 97.375 328.75H63ZM175.5 297.5C168.586 297.5 163 303.086 163 310V335C163 341.914 168.586 347.5 175.5 347.5C182.414 347.5 188 341.914 188 335V310C188 303.086 182.414 297.5 175.5 297.5ZM138 272.5C131.086 272.5 125.5 278.086 125.5 285V322.5C125.5 329.414 131.086 335 138 335C144.914 335 150.5 329.414 150.5 322.5V285C150.5 278.086 144.914 272.5 138 272.5ZM63 272.5C56.0859 272.5 50.5 278.086 50.5 285V316.25H75.5V285C75.5 278.086 69.9141 272.5 63 272.5ZM100.5 260C93.5859 260 88 265.586 88 272.5V316.25H113V272.5C113 265.586 107.414 260 100.5 260ZM872.934 87.6504C868.775 82.1231 860.888 80.9864 855.355 85.1416L812.667 117.129C807.841 115.091 802.544 113.992 796.973 113.992H753.027C747.456 113.992 742.159 115.13 737.333 117.129L694.645 85.1416C689.112 80.9864 681.225 82.1231 677.066 87.6504C672.908 93.1776 674.046 101.057 679.578 105.212L717.951 133.945C715.872 137.434 714.302 141.276 713.321 145.353H674.556C667.611 145.353 662 150.958 662 157.896C662 164.835 667.611 170.441 674.556 170.441H712.223V182.985C712.223 184.044 712.262 185.063 712.301 186.082L679.578 210.582C674.046 214.737 672.908 222.616 677.066 228.144C681.225 233.671 689.112 234.808 694.645 230.652L719.402 212.111C728.505 229.438 745.494 241.982 765.583 245V154.761C765.583 149.547 769.782 145.353 775 145.353C780.218 145.353 784.417 149.547 784.417 154.761V245C804.506 241.982 821.495 229.438 830.598 212.111L855.355 230.652C860.888 234.808 868.775 233.671 872.934 228.144C877.092 222.616 875.954 214.737 870.422 210.582L837.699 186.082C837.738 185.063 837.777 184.004 837.777 182.985V170.441H875.444C882.389 170.441 888 164.835 888 157.896C888 150.958 882.389 145.353 875.444 145.353H836.679C835.698 141.276 834.128 137.434 832.049 133.945L870.422 105.212C875.954 101.057 877.092 93.1776 872.934 87.6504ZM102.425 29C98.649 29 95.1371 30.7044 92.9092 33.7344C79.1644 52.4464 30.0003 121.727 30 156.272C30 196.424 62.474 229 102.5 229C142.526 229 175 196.424 175 156.272C175 121.727 125.836 52.4464 112.091 33.7344C109.863 30.7044 106.351 29 102.575 29H102.425ZM269.877 31.4023C266.598 28.3139 261.552 28.2034 258.126 31.0713L258.163 31.1084C254.848 33.8661 251.789 36.9173 248.769 40.0059C243.28 45.5948 235.986 53.7583 228.655 63.9434C214.141 84.1664 199 113.177 199 146.674C199 192.157 235.912 229 281.481 229C327.051 229 364 192.12 364 146.637C364 120.825 353.538 97.8438 343.518 81.7021C338.471 73.5764 333.424 66.9949 329.63 62.4355C329.151 61.8841 328.672 61.2958 328.193 60.6709C325.246 56.9205 321.783 52.545 316.847 52.5449C312.021 52.5449 308.41 57.0675 305.5 60.6709C305.095 61.1855 304.689 61.6999 304.284 62.1777C302.737 64.0529 300.969 66.2595 299.054 68.7598C293.307 59.2365 287.338 51.2212 282.365 45.1543C278.46 40.3743 274.408 35.6676 269.877 31.4023ZM506.777 29C504.082 29.0001 501.66 30.6403 500.801 33.2178C499.941 35.7954 500.84 38.6077 502.988 40.209L519.903 52.9014L503.965 60.8691C501.66 62.0407 500.293 64.5397 500.566 67.1562C500.84 69.7729 502.715 71.921 505.254 72.5459L525.529 77.623V117.654C525.529 134.213 532.131 150.109 543.851 161.825L561.196 179.166C562.368 180.338 563.032 181.939 563.032 183.618C563.032 186.899 560.532 189.633 557.29 189.906L399.502 203.966C398.213 204.044 396.963 204.357 395.791 204.825C392.275 206.27 389.618 209.199 388.524 212.792C388.134 214.12 387.939 215.526 388.017 216.971C388.056 218.455 388.407 219.862 388.915 221.15C390.36 224.665 393.291 227.321 396.885 228.414C398.057 228.805 399.347 228.961 400.636 228.961L595.105 229C618.818 229 638 209.785 638 186.118C638 171.316 630.382 157.608 617.842 149.758L576.197 123.747C567.994 118.592 562.993 109.57 562.993 99.8848V91.4883H575.494L580.69 96.6816C585.378 101.368 591.746 103.985 598.387 103.985H606.786C617.139 103.985 625.538 95.5887 625.538 85.2393C625.538 81.1776 624.21 77.2327 621.788 73.9912L599.285 43.9971C592.214 34.546 581.081 29.0001 569.283 29H506.777ZM462.008 72.8975C454.937 68.1719 445.522 68.8361 439.154 74.499L390.127 118.045C388.056 119.92 387.431 122.888 388.603 125.388C389.775 127.887 392.47 129.332 395.205 128.902L454.819 119.725L427.708 142.962C425.716 144.68 425.013 147.454 425.911 149.875C426.81 152.296 429.153 153.936 431.771 153.937H522.404C516.31 142.923 513.028 130.425 513.028 117.615V106.875L462.008 72.8975ZM775 45C754.205 45 737.333 61.8559 737.333 82.6318H737.373V84.0439C737.373 90.1982 742.356 95.1768 748.516 95.1768H801.523C807.683 95.1768 812.667 90.1982 812.667 84.0439V82.6318C812.667 61.8559 795.795 45 775 45ZM587.526 60.127C586.276 63.8369 582.8 66.493 578.659 66.4932C573.463 66.4932 569.283 62.3134 569.283 57.1191C569.283 56.6116 569.322 56.1042 569.4 55.5967L587.526 60.127Z" fill="#D9D9D9"/>
</svg>
