<svg width="513" height="546" viewBox="0 0 513 546" fill="none" xmlns="http://www.w3.org/2000/svg">
<path d="M512.553 546H0V0H512.553V546ZM240.054 246.383C239.083 245.857 237.869 246.218 237.343 247.189L231.521 257.937C225.179 267.074 215.232 281.783 205.913 296.341C196.592 310.902 187.808 325.452 183.94 334.107C180.156 342.577 175.041 353.718 170.822 364.884C166.642 375.948 163.243 387.285 162.979 396.217C161.836 403.695 161.076 416.051 162.455 429.157C163.838 442.308 167.399 456.455 175.104 467.167C184.453 480.166 194.845 491.864 211.121 500.263C227.374 508.649 249.302 513.649 281.588 513.649H281.733L281.877 513.629C300.335 510.928 301.43 512.262 327.831 504.068L327.835 504.067C342.357 499.529 359.365 494.615 365.058 493.739C367.938 493.296 374.154 491.912 381.15 490.422L380.435 486.484C373.275 488.008 367.204 489.362 364.449 489.786C358.39 490.718 341.047 495.747 326.642 500.249C300.688 508.303 299.905 506.956 281.451 509.648C249.631 509.634 228.432 504.694 212.955 496.708C197.48 488.723 187.532 477.595 178.351 464.831C171.23 454.932 167.785 441.584 166.434 428.738C165.086 415.924 165.847 403.849 166.952 396.699L166.972 396.573L166.975 396.446C167.191 388.221 170.379 377.373 174.563 366.297C178.729 355.27 183.784 344.264 187.593 335.739C191.319 327.4 199.937 313.097 209.282 298.498C218.6 283.943 228.552 269.229 234.868 260.13L234.932 260.039L234.983 259.941L240.859 249.094C241.385 248.123 241.025 246.909 240.054 246.383ZM457.027 358.437C446.586 348.644 431.137 341.955 407.653 342.415L407.582 342.417L407.511 342.423C400.287 343.08 392.074 343.86 383.099 345.326L383.909 349.247C392.635 347.828 400.664 347.061 407.799 346.412C430.378 345.983 444.741 352.398 454.291 361.354C463.881 370.349 468.838 382.108 472.194 392.823C476.193 412.207 475.367 425.602 472.227 435.566C469.097 445.494 463.608 452.222 457.843 458.217C440.607 473.21 416.654 480.325 403.803 482.098C402.917 482.22 401.998 482.357 401.055 482.505L401.771 486.44C402.656 486.302 403.518 486.174 404.35 486.06C417.699 484.218 442.519 476.883 460.533 461.179L460.599 461.121L460.659 461.059C466.621 454.867 472.629 447.596 476.042 436.77C479.45 425.958 480.208 411.809 476.093 391.92L476.072 391.823L476.043 391.729C472.62 380.775 467.407 368.172 457.027 358.437ZM251.628 260.762C250.61 260.334 249.437 260.812 249.009 261.83C242.797 276.602 234.52 299.944 228.133 322.38C224.939 333.6 222.208 344.626 220.446 354.261C218.695 363.841 217.864 372.236 218.585 378.105C220.142 390.783 220.955 408.708 230.425 424.917C239.995 441.297 258.201 455.686 293.891 462.092L293.934 462.1L293.978 462.105C311.22 464.415 358.271 463.095 410.317 439.802L410.337 439.793L410.356 439.783C438.022 426.678 454.482 412.424 459.378 406.738C460.098 405.901 460.005 404.638 459.168 403.917C458.331 403.196 457.067 403.291 456.347 404.128C451.903 409.288 435.953 423.227 408.683 436.15C357.344 459.127 311.066 460.349 294.536 458.144C259.757 451.889 242.722 438.036 233.879 422.899C224.93 407.582 224.162 390.703 222.555 377.618C221.913 372.389 222.641 364.501 224.382 354.98C226.112 345.515 228.806 334.622 231.979 323.475C238.327 301.177 246.554 277.988 252.696 263.381C253.124 262.363 252.646 261.19 251.628 260.762ZM39.7744 359.782L37.7822 359.963C39.1421 374.921 40.7419 383.899 43.4893 391.415C46.2335 398.922 50.0957 404.877 55.7129 413.735C65.4623 429.109 83.8109 439.853 102.433 447.062C121.116 454.294 140.433 458.104 152.559 459.4L152.771 457.411L152.983 455.423C141.154 454.158 122.187 450.419 103.876 443.331C85.5028 436.219 68.144 425.87 59.0908 411.594C53.4086 402.633 49.8127 397.062 47.2461 390.041C44.6827 383.028 43.1186 374.473 41.7666 359.601L39.7744 359.782ZM99.3115 434.777C98.294 434.348 97.1202 434.824 96.6904 435.842C96.261 436.859 96.7375 438.033 97.7549 438.463C106.16 442.012 117.125 444.033 127.301 445.14C137.508 446.25 147.09 446.456 152.825 446.303C153.929 446.273 154.8 445.355 154.771 444.251C154.741 443.147 153.823 442.276 152.719 442.305C147.154 442.453 137.752 442.253 127.733 441.163C117.684 440.07 107.178 438.099 99.3115 434.777ZM263.979 263.971C258.804 277.903 253.903 291.849 250.297 303.602C244.203 323.462 241.554 332.992 240.285 341.931C239.023 350.822 239.132 359.159 238.459 376.429L238.454 376.551L238.464 376.673C240.668 403.114 249.886 419.102 260.801 428.244C271.632 437.316 283.931 439.473 292.107 438.617C318.051 438.04 352.241 425.225 379.939 411.856C393.846 405.144 406.21 398.247 415.2 392.588C419.69 389.762 423.371 387.224 425.991 385.157C427.297 384.127 428.38 383.183 429.177 382.354C429.574 381.941 429.932 381.522 430.216 381.11C430.481 380.725 430.777 380.208 430.896 379.61C431.113 378.528 430.411 377.474 429.328 377.257C428.286 377.048 427.272 377.692 427.004 378.706C426.993 378.727 426.969 378.773 426.921 378.843C426.802 379.016 426.6 379.262 426.292 379.583C425.675 380.225 424.751 381.041 423.515 382.017C421.049 383.961 417.498 386.415 413.069 389.203C404.22 394.773 391.989 401.599 378.201 408.254C350.538 421.606 316.972 434.088 291.941 434.621L291.854 434.623L291.77 434.633C284.578 435.408 273.335 433.525 263.369 425.178C253.462 416.878 244.612 402.01 242.46 376.452C243.137 359.013 243.025 351.094 244.245 342.493C245.462 333.918 248.012 324.688 254.121 304.775C257.667 293.217 262.482 279.503 267.577 265.77L263.979 263.971ZM47.2715 359.922C49.1408 386.651 65.0815 403.485 83.9736 413.592C102.803 423.665 124.722 427.167 139.19 427.32L139.212 425.32L139.232 423.32C125.226 423.172 103.981 419.758 85.8604 410.064C67.8028 400.404 53.0084 384.62 51.2617 359.643L47.2715 359.922ZM367.42 348.517C355.732 351.405 343.132 355.736 330.014 362.485C327.393 363.568 322.698 366.007 317.005 369.065C311.221 372.173 304.26 376.001 297.189 379.832C282.935 387.556 268.318 395.243 261.068 397.66C260.021 398.009 259.454 399.142 259.803 400.189C260.152 401.237 261.285 401.803 262.333 401.454C269.999 398.899 284.988 390.993 299.095 383.35C306.205 379.497 313.115 375.697 318.898 372.59C324.712 369.467 329.243 367.122 331.611 366.153L331.692 366.12L331.771 366.08C344.543 359.501 356.812 355.267 368.23 352.436L367.42 348.517ZM56.9512 288.368C50.9602 288.368 46.1035 293.225 46.1035 299.216C46.1035 302.498 47.5628 305.438 49.8662 307.427C49.3721 307.377 48.8704 307.352 48.3633 307.352C40.1257 307.352 33.4473 314.03 33.4473 322.268C33.4475 330.505 40.1258 337.183 48.3633 337.183C56.6005 337.182 63.2781 330.505 63.2783 322.268C63.2783 317.222 60.7728 312.762 56.9385 310.062C56.9425 310.063 56.9472 310.063 56.9512 310.063C62.9418 310.063 67.7988 305.207 67.7988 299.216C67.7988 293.225 62.9418 288.369 56.9512 288.368ZM72.376 270.284C69.3103 271.715 66.6087 274.164 64.4854 276.586C62.3475 279.025 60.683 281.566 59.7139 283.343L61.4697 284.301L63.2256 285.258C64.0644 283.72 65.5632 281.424 67.4932 279.223C68.1484 278.475 68.8422 277.754 69.5625 277.083C69.4303 277.377 69.2939 277.678 69.1514 277.981C67.9032 280.639 66.3505 283.48 65.1572 285.568L68.6299 287.553C69.8471 285.423 71.4585 282.478 72.7715 279.682C73.4272 278.285 74.0236 276.894 74.46 275.642C74.8776 274.443 75.2217 273.175 75.2217 272.097V268.956L72.376 270.284ZM254.017 213.338C246.528 213.338 240.457 219.409 240.457 226.897C240.457 234.386 246.528 240.457 254.017 240.457C261.505 240.457 267.576 234.386 267.576 226.897C267.576 219.409 261.505 213.338 254.017 213.338ZM304.57 158.006C303.466 158.044 302.603 158.97 302.641 160.074C302.808 164.933 301.515 169.881 299.69 174.568C297.859 179.274 295.577 183.525 293.803 187.149L293.755 187.246L293.719 187.349L287.863 203.562C284.454 211.659 279.277 224.315 273.667 238.628L277.26 240.424C282.909 226.002 288.134 213.227 291.566 205.076L291.587 205.027L291.604 204.979L297.441 188.814C299.13 185.371 301.523 180.888 303.418 176.019C305.337 171.087 306.832 165.562 306.638 159.936C306.599 158.832 305.674 157.968 304.57 158.006ZM223.777 154.276C223.36 153.254 222.194 152.762 221.171 153.179C220.148 153.596 219.657 154.763 220.073 155.786C221.694 159.765 223.324 164.852 224.016 169.348C224.151 170.23 224.17 171.468 224.073 172.983C223.753 177.988 222.263 184.867 221.347 188.42C221.054 189.365 220.942 190.514 220.942 191.614C220.942 192.644 221.039 193.751 221.237 194.797L221.329 195.241C221.707 196.94 223.091 198.491 224.605 199.754C226.209 201.092 228.322 202.405 230.719 203.559C235.501 205.861 241.674 207.654 247.688 207.654C252.552 207.654 257.595 206.285 261.855 204.639C266.13 202.987 269.758 201.002 271.834 199.645L271.942 199.573L272.041 199.489C273.418 198.309 275.986 195.615 278.539 192.792C281.094 189.967 283.75 186.882 285.381 184.791L292.574 176.7C293.308 175.875 293.233 174.611 292.408 173.877C291.583 173.143 290.318 173.217 289.584 174.043L282.353 182.179L282.309 182.228L282.269 182.279C280.731 184.256 278.125 187.287 275.573 190.109C273.064 192.884 270.716 195.33 269.529 196.369C267.665 197.574 264.344 199.389 260.414 200.907C256.389 202.463 251.865 203.654 247.688 203.654C242.403 203.654 236.824 202.058 232.454 199.954C230.275 198.905 228.459 197.759 227.168 196.682C225.961 195.674 225.442 194.919 225.281 194.521L225.233 194.373L225.166 194.045C225.019 193.267 224.942 192.414 224.942 191.614C224.942 190.671 225.049 189.953 225.179 189.563L225.2 189.498L225.218 189.431C226.153 185.807 227.719 178.63 228.064 173.239C228.169 171.611 228.17 170.04 227.97 168.739C227.215 163.834 225.471 158.433 223.777 154.276ZM270.909 134.521C267.292 135.037 264.121 136.531 261.713 140.277C259.42 143.844 257.913 149.314 257.001 157.523L256.993 157.592L256.99 157.66C256.914 159.495 256.845 162.361 256.888 165.008C256.909 166.329 256.957 167.624 257.051 168.72C257.13 169.65 257.259 170.656 257.517 171.406C257.789 172.626 258.402 174.355 259.478 175.777C260.623 177.292 262.555 178.743 265.233 178.241L265.367 178.216L265.497 178.173C268.119 177.299 272.076 175.572 275.51 173.183C278.839 170.867 282.208 167.56 282.672 163.389L282.677 163.35L282.679 163.311C282.911 160.061 283.035 153.637 281.794 147.729C281.174 144.777 280.186 141.817 278.599 139.432C276.987 137.01 274.698 135.106 271.55 134.533L271.23 134.475L270.909 134.521ZM293.979 83.0859C293.242 84.9159 292.527 86.6658 291.841 88.3066C289.221 94.5761 287.129 99.122 286.201 100.669C281.918 107.808 279.107 118.172 280.048 128.99L280.062 129.157L280.104 129.319C285.446 149.92 300.681 153.806 308.034 152.951L308.965 152.843L309.478 152.06C311.686 148.683 312.568 144.273 312.635 139.844C312.702 135.383 311.945 130.695 310.675 126.588C309.417 122.523 307.592 118.819 305.381 116.477C304.271 115.302 302.935 114.335 301.394 113.974C299.764 113.593 298.138 113.945 296.688 114.992C291.534 118.715 291.017 124.18 292.154 128.935C293.275 133.62 296.044 138.005 298.135 140.498L299.668 139.213L301.2 137.928C299.374 135.75 296.979 131.912 296.044 128.005C295.126 124.166 295.664 120.666 299.03 118.235C299.614 117.814 300.066 117.771 300.482 117.868C300.986 117.986 301.668 118.372 302.472 119.223C304.088 120.934 305.682 123.983 306.854 127.77C308.012 131.516 308.696 135.784 308.636 139.783C308.581 143.39 307.922 146.617 306.613 149.047C300.603 149.276 288.581 145.803 284.02 128.478C283.196 118.565 285.8 109.112 289.631 102.728C290.737 100.884 292.939 96.0508 295.531 89.8486C296.047 88.6153 296.577 87.3208 297.123 85.9785L293.979 83.0859ZM237.534 132.756C235.772 130.994 233.29 129.831 230.507 130.485L230.493 130.489L230.479 130.492C227.441 131.252 222.682 132.527 218.263 133.889C216.054 134.569 213.91 135.277 212.099 135.959C210.338 136.622 208.73 137.318 207.708 138L205.355 139.568L207.617 141.265C208.61 142.009 212.202 144.436 216.635 146.797C221.019 149.131 226.505 151.554 231.207 152.049L231.449 152.074L231.69 152.041C235.459 151.521 238.119 149.806 239.653 147.348C241.151 144.948 241.416 142.099 240.956 139.537C240.497 136.98 239.282 134.504 237.534 132.756ZM328.717 118.521C327.624 118.677 326.864 119.69 327.021 120.783C327.126 121.52 326.937 122.638 326.301 124.15C325.681 125.623 324.724 127.265 323.564 128.963C321.248 132.354 318.271 135.753 316.041 138.132C315.286 138.938 315.326 140.204 316.132 140.959C316.938 141.714 318.204 141.674 318.959 140.868C321.248 138.426 324.384 134.856 326.868 131.219C328.109 129.402 329.225 127.514 329.987 125.702C330.733 123.931 331.236 122.011 330.979 120.217C330.823 119.124 329.81 118.364 328.717 118.521ZM204.107 111.584C204.033 114.191 203.908 118.024 204.529 121.724C205.145 125.391 206.558 129.338 209.896 131.785C210.786 132.438 212.037 132.245 212.69 131.354C213.343 130.464 213.151 129.213 212.261 128.56C210.174 127.029 209.025 124.347 208.474 121.062C207.927 117.809 208.029 114.364 208.105 111.698L206.106 111.642L204.107 111.584ZM332.663 70.0596L330.854 70.9131C333.14 75.753 335.527 89.9276 327.687 106.729C324.625 113.288 319.473 119.698 316.873 123.338C316.231 124.237 316.44 125.486 317.339 126.128C318.238 126.769 319.487 126.562 320.129 125.663C322.529 122.303 328.045 115.419 331.312 108.42C339.609 90.6386 337.309 75.2142 334.472 69.2051L332.663 70.0596ZM222.953 109.659C221.716 111.592 219.908 114.674 218.491 117.667C217.784 119.16 217.15 120.683 216.738 122.059C216.357 123.334 216.048 124.849 216.37 126.138L218.31 125.652L220.25 125.168C220.211 125.01 220.21 124.409 220.57 123.205C220.901 122.101 221.442 120.781 222.106 119.378C223.432 116.578 225.149 113.649 226.322 111.815L222.953 109.659ZM187.194 51.6152C191.394 58.9647 197.649 70.5767 202.758 81.5049C205.313 86.9716 207.565 92.2327 209.129 96.6855C210.731 101.246 211.488 104.634 211.344 106.516L213.338 106.669L215.332 106.823C215.549 104.004 214.492 99.8815 212.903 95.3594C211.277 90.7293 208.963 85.3345 206.381 79.8105C202.168 70.7972 197.194 61.3467 193.204 54.1445C202.472 58.345 217.532 70.9162 225.882 99.5459L227.802 98.9854L229.722 98.4258C219.442 63.1829 198.958 50.4897 189.304 48.6582L185.043 47.8496L187.194 51.6152ZM312.548 27.7676C311.567 27.7875 310.688 28.1886 310.006 28.8701L309.185 29.6904L309.49 30.8105C309.712 31.6255 309.726 33.2114 309.376 35.6445C309.037 37.9975 308.399 40.894 307.53 44.1719C305.793 50.7223 303.174 58.641 300.33 66.4971C299.899 67.6887 299.46 68.8775 299.021 70.0596L302.198 72.9824C302.833 71.2886 303.469 69.5765 304.091 67.8584C306.953 59.9519 309.616 51.9096 311.396 45.1973C312.286 41.8441 312.966 38.7823 313.335 36.2148C313.524 34.9019 313.643 33.6405 313.647 32.4971C314.141 32.989 314.727 33.735 315.34 34.791C317.164 37.9328 318.887 43.1769 319.35 50.043C318.293 55.4358 316.409 63.8509 314.129 71.8623C312.971 75.9313 311.717 79.8708 310.427 83.2461C309.124 86.6557 307.831 89.3597 306.628 91.0439L308.256 92.2061L309.883 93.3691C311.392 91.2568 312.831 88.1634 314.164 84.6748C315.511 81.1519 316.8 77.0912 317.977 72.957C320.248 64.9792 322.124 56.6296 323.208 51.1416C323.61 50.7632 324.016 50.4955 324.361 50.3672C324.731 50.2298 324.909 50.2769 325.093 50.4082C325.396 50.6254 325.988 51.303 326.513 53.1406C327.025 54.9356 327.409 57.6089 327.499 61.4717L327.484 62.3252C327.332 66.8446 326.054 75.0432 324.053 83.2588C322.991 87.6154 321.741 91.9164 320.377 95.6094C318.997 99.3437 317.557 102.301 316.169 104.086L317.747 105.314L319.326 106.542C321.102 104.259 322.712 100.832 324.129 96.9961C325.561 93.1186 326.854 88.6618 327.939 84.2051C330.098 75.3418 331.499 66.2317 331.499 61.4717V61.4258C331.407 57.359 331.003 54.2975 330.358 52.042C329.725 49.8247 328.786 48.133 327.42 47.1553C325.959 46.1102 324.359 46.1204 323.033 46.5947C322.287 40.7295 320.666 35.9996 318.799 32.7832C317.706 30.9014 316.429 29.3649 315.037 28.5098C314.327 28.0739 313.478 27.7489 312.548 27.7676ZM278.867 94.0332C270.659 89.9292 250.06 85.164 233.294 99.2627L234.582 100.794L235.869 102.324C250.922 89.6663 269.617 93.88 277.078 97.6104L277.973 95.8213L278.867 94.0332Z" fill="#D9D9D9"/>
</svg>
