<svg width="251" height="185" viewBox="0 0 251 185" fill="none" xmlns="http://www.w3.org/2000/svg">
<path d="M251 185H0V0H251V185ZM215.206 94.166C220.225 103.048 221.374 112.069 220.973 117.882C220.553 118.198 220.257 118.677 220.189 119.24C220.06 120.313 220.805 121.286 221.863 121.452C222.071 121.563 222.301 121.642 222.548 121.674C222.762 121.702 222.972 121.693 223.174 121.655C226.772 122.307 231.009 123.991 233.594 126.998C234.997 128.63 235.937 130.673 236.05 133.263C236.164 135.884 235.435 139.207 233.237 143.363L233.208 143.418L233.183 143.475C230.943 148.426 223.014 157.882 208.735 157.675C216.099 147.4 217.123 139.577 214.226 133.861C211.135 127.764 204.067 125.137 198.884 124.438C197.789 124.291 196.782 125.06 196.635 126.154C196.488 127.249 197.256 128.256 198.351 128.403C203.053 129.037 208.458 131.332 210.657 135.67C212.753 139.805 212.429 146.894 203.159 158.398C203.057 158.525 202.975 158.66 202.908 158.801C199.909 161.461 193.067 165.85 184.634 166.279L184.387 166.292L184.15 166.364C182.485 166.874 179.554 167.933 172.324 168.674C165.037 169.42 153.378 169.841 134.337 169.002C133.233 168.953 132.3 169.809 132.251 170.912C132.202 172.016 133.058 172.949 134.161 172.998C153.315 173.842 165.183 173.426 172.731 172.653C180.02 171.907 183.275 170.824 185.092 170.258C194.772 169.685 202.483 164.625 205.857 161.526C223.801 163.159 233.898 151.53 236.8 145.178C239.208 140.607 240.198 136.594 240.046 133.089C239.891 129.538 238.571 126.653 236.627 124.391C233.528 120.786 228.914 118.824 224.978 117.938C225.392 111.198 223.959 100.978 218.07 91.123L215.206 94.166ZM54.498 65.5645C42.1748 63.1848 33.7795 63.0086 28.2422 63.8359C25.4728 64.2497 23.352 64.9237 21.7979 65.75C20.2857 66.554 19.1129 67.6111 18.6055 68.8965L18.4961 69.1758L18.4727 69.4746C17.609 80.4861 20.8939 90.842 24.7012 98.5527C23.7779 98.7161 22.6533 98.9491 21.4268 99.3096C18.6009 100.14 15.1412 101.666 12.293 104.633C11.3416 105.624 11.0016 106.874 11 108.084C10.9985 109.261 11.3109 110.495 11.7656 111.693C12.6762 114.093 14.3409 116.816 16.2744 119.514C19.8144 124.453 24.5247 129.674 28.125 133.328C27.7541 134.041 27.4015 134.753 27.0664 135.461C23.8595 142.235 22.1928 148.806 21.6396 152.862L21.5293 153.668L22.0127 154.321C23.7673 156.695 26.4922 158.308 29.4951 159.418C32.5204 160.536 36.0135 161.214 39.5361 161.6C45.416 162.243 51.5828 162.091 56.2168 161.69C56.6271 164.378 57.9714 166.5 60.0049 168.056C62.5723 170.019 66.0695 170.954 69.6777 171.327C75.8432 171.965 83.0735 171.032 88.6582 169.816C89.06 170.094 89.4895 170.258 89.8086 170.362C90.2998 170.522 90.8655 170.644 91.459 170.741C92.651 170.937 94.1714 171.071 95.8867 171.169C99.3256 171.366 103.789 171.43 108.47 171.5C109.574 171.516 110.482 170.634 110.499 169.53C110.516 168.426 109.634 167.517 108.529 167.501C103.815 167.431 99.4503 167.367 96.1152 167.176C94.8552 167.104 93.776 167.015 92.9004 166.906C92.8905 166.845 92.8791 166.784 92.8633 166.723C92.586 165.654 91.4947 165.011 90.4258 165.288C84.8554 166.732 76.6623 168.029 70.0898 167.349C66.7891 167.007 64.1499 166.191 62.4346 164.879C61.1576 163.902 60.2963 162.585 60.1172 160.665C60.4275 160.264 60.5873 159.746 60.5215 159.202C60.4767 158.832 60.332 158.5 60.1201 158.225C60.2973 138.414 67.0464 127.349 70.0176 124.497C70.8138 123.732 70.8399 122.467 70.0752 121.67C69.3104 120.873 68.0439 120.848 67.2471 121.612C63.3321 125.371 56.4205 137.411 56.127 157.683C51.6755 158.082 45.6518 158.245 39.9707 157.623C36.6367 157.258 33.4934 156.632 30.8818 155.666C28.6106 154.826 26.8763 153.779 25.7324 152.547C26.341 148.828 27.8778 143.096 30.6816 137.173C33.7123 130.771 38.1537 124.29 44.3486 119.843C45.2457 119.199 45.4504 117.949 44.8066 117.052C44.1625 116.155 42.9129 115.949 42.0156 116.593C37.0412 120.164 33.1564 124.841 30.1748 129.701C26.7948 126.209 22.6545 121.55 19.5254 117.184C17.6591 114.58 16.2324 112.189 15.5059 110.274C15.1422 109.316 14.9993 108.593 15 108.089C15.0007 107.618 15.1206 107.464 15.1787 107.403C18.9799 103.444 24.0579 102.717 26.6963 102.293C28.4468 105.333 30.1761 107.766 31.5537 109.407C32.2639 110.253 33.5261 110.363 34.3721 109.653C35.2178 108.943 35.328 107.682 34.6182 106.836C30.0797 101.43 21.3227 86.4951 22.4307 70.209C22.5829 70.0189 22.9322 69.6776 23.6758 69.2822C24.7179 68.7282 26.3706 68.1599 28.833 67.792C33.7596 67.0559 41.6652 67.1595 53.7402 69.4912C54.8246 69.7005 55.8734 68.9915 56.083 67.9072C56.2924 66.8227 55.5826 65.7739 54.498 65.5645ZM185.688 53.6621C184.71 53.6059 183.541 53.6261 182.233 53.7217C179.614 53.9132 176.326 54.4128 172.703 55.2754C171.629 55.5315 170.966 56.6102 171.222 57.6846C171.478 58.7589 172.556 59.4226 173.63 59.167C177.074 58.347 180.147 57.8857 182.524 57.7119C183.715 57.6249 184.703 57.6119 185.459 57.6553C185.836 57.677 186.136 57.711 186.361 57.751C186.369 57.7524 186.378 57.7544 186.386 57.7559C186.556 57.9956 186.764 58.361 186.99 58.8848C187.319 59.6479 187.618 60.5793 187.888 61.583C188.466 63.7351 188.757 65.5245 189.102 66.9473C189.136 67.0902 189.186 67.2255 189.248 67.3525C180.994 63.2721 166.106 59.274 147.898 63.4756C133.381 66.8258 123.7 78.7088 117.735 90.0771C114.733 95.7986 112.616 101.492 111.261 106.124C110.583 108.441 110.091 110.508 109.773 112.195C109.465 113.837 109.296 115.245 109.331 116.188C109.352 116.756 109.293 117.717 109.176 119.126C109.064 120.478 108.904 122.198 108.761 124.105C108.472 127.946 108.235 132.731 108.518 137.812C109.079 147.894 111.711 159.57 120.532 167.261C121.365 167.986 122.629 167.9 123.354 167.067C124.08 166.235 123.993 164.971 123.161 164.245C115.577 157.633 113.054 147.33 112.512 137.589C112.243 132.758 112.466 128.169 112.749 124.405C112.891 122.511 113.045 120.869 113.162 119.457C113.274 118.102 113.36 116.893 113.328 116.041C113.31 115.565 113.406 114.52 113.704 112.935C113.994 111.394 114.453 109.456 115.1 107.248C116.393 102.83 118.417 97.3878 121.277 91.9355C127.038 80.9562 135.972 70.3329 148.798 67.373C170.07 62.4641 186.303 69.464 191.538 73.3418L191.708 73.4678L191.901 73.5557C197.433 76.067 201.971 79.0942 205.682 82.4004L208.43 79.4805C204.46 75.9315 199.618 72.6873 193.733 69.9951C193.056 69.5049 192.248 68.9875 191.321 68.4561C191.386 68.4469 191.452 68.4357 191.517 68.4199C192.59 68.1596 193.248 67.0782 192.988 66.0049C192.772 65.1141 192.3 62.5905 191.751 60.5459C191.457 59.4514 191.1 58.3128 190.663 57.2998C190.243 56.3267 189.669 55.2748 188.852 54.5254L188.604 54.2998L188.298 54.166L188.011 54.0537C187.321 53.8126 186.493 53.7083 185.688 53.6621ZM142.693 149.887C140.753 149.455 138.785 149.734 137.534 150.215L137.444 150.249L137.358 150.293C134.788 151.578 133.722 153.674 133.434 155.658C133.163 157.52 133.571 159.27 133.788 160.139C134.002 160.993 134.528 161.788 135.095 162.424C135.69 163.092 136.463 163.733 137.359 164.246C139.152 165.271 141.628 165.874 144.226 164.864C146.2 164.096 148.097 163.025 148.797 160.901C149.44 158.949 148.838 156.702 147.897 154.297C146.848 151.616 144.727 150.339 142.693 149.887ZM80.209 117.011C79.1106 116.895 78.1263 117.693 78.0107 118.791C77.8953 119.889 78.6926 120.874 79.791 120.989C80.8888 121.105 82.7147 121.514 84.4326 122.348C86.1691 123.19 87.5398 124.337 88.1621 125.788C88.5974 126.803 89.7729 127.273 90.7881 126.838C91.8032 126.403 92.2732 125.227 91.8379 124.212C90.6825 121.518 88.3495 119.801 86.1787 118.748C83.9894 117.686 81.7038 117.168 80.209 117.011ZM108.31 59.8457C91.1352 52.7331 74.2732 54.9754 67.8096 57.0557L67.1191 57.2773L66.7314 57.8916C61.911 65.5315 61.3765 75.2361 62.4893 83.9932C63.6074 92.7924 66.4306 100.974 68.7139 105.867C69.181 106.868 70.3711 107.301 71.3721 106.834C72.3728 106.367 72.8059 105.177 72.3389 104.176C70.2052 99.6036 67.5168 91.8214 66.458 83.4893C65.4277 75.3814 65.9785 67.0671 69.7334 60.6523C75.9783 58.8663 91.251 57.1101 106.779 63.541C107.8 63.9636 108.97 63.4794 109.393 62.459C109.815 61.4385 109.33 60.2683 108.31 59.8457ZM131.466 10.1221C123.163 13.1576 115.861 19.7269 110.004 26.6904C106.907 30.373 104.173 34.2174 101.867 37.8057C93.1856 32.64 85.8407 29.7956 80.0889 28.3633C74.0845 26.8681 69.662 26.8736 67.2646 27.5273L66.9951 27.6006L66.7568 27.7451C62.2209 30.4856 59.4461 34.6851 57.5498 39.3936C55.6683 44.0654 54.583 49.4198 53.5391 54.6045C53.3211 55.6873 54.0228 56.7418 55.1055 56.96C56.1882 57.1779 57.2428 56.4772 57.4609 55.3945C58.5203 50.1331 59.5421 45.1552 61.2607 40.8877C62.9237 36.7587 65.1729 33.4694 68.5713 31.3252C70.1745 30.9764 73.7362 30.9027 79.123 32.2441C84.4378 33.5677 91.3996 36.2392 99.7578 41.2051C98.5969 43.1463 97.5843 44.9586 96.7334 46.5635C96.2161 47.5393 96.5877 48.7492 97.5635 49.2666C98.5393 49.7839 99.7492 49.4123 100.267 48.4365C102.993 43.2952 107.419 35.9796 113.065 29.2656C118.546 22.7499 125.037 16.9691 132.094 14.1631C134.083 15.1657 137.559 17.8421 141.688 23.1592C146.265 29.0521 151.535 38.0488 156.355 51.1797C156.736 52.2166 157.886 52.7487 158.923 52.3682C159.96 51.9874 160.491 50.8385 160.11 49.8018C155.171 36.3469 149.715 26.9737 144.848 20.7061C140.029 14.5017 135.673 11.1951 132.86 10.1299L132.164 9.86621L131.466 10.1221Z" fill="#D9D9D9"/>
</svg>
