<svg width="512" height="512" viewBox="0 0 512 512" fill="none" xmlns="http://www.w3.org/2000/svg">
<path d="M512 512H0V0H512V512ZM315.988 370.218C314.936 369.883 313.81 370.465 313.476 371.518C313.141 372.57 313.723 373.695 314.775 374.03C321.928 376.306 328.828 383.063 332.742 393.085C338.426 407.638 337.695 428.904 322.084 451.937C317.338 458.938 310.942 465.801 303.676 470.724C296.405 475.65 288.397 478.549 280.354 477.896C276.574 477.59 273.784 476.582 271.585 475.088C269.374 473.586 267.634 471.507 266.082 468.869C264.519 466.211 263.192 463.069 261.762 459.479C260.347 455.928 258.836 451.954 256.938 447.825C254.227 441.924 250.795 437.463 248.039 434.475C246.66 432.979 245.446 431.847 244.567 431.083C244.128 430.701 243.772 430.409 243.521 430.21C243.395 430.111 243.295 430.034 243.225 429.98C243.189 429.954 243.161 429.932 243.141 429.917C243.131 429.91 243.123 429.903 243.116 429.898L243.104 429.891L243.104 429.89C243.103 429.889 243.103 429.889 241.979 431.433L243.103 429.889C242.21 429.238 240.958 429.435 240.308 430.328C239.658 431.22 239.854 432.469 240.745 433.12V433.121C240.746 433.122 240.75 433.124 240.755 433.128C240.765 433.135 240.782 433.149 240.807 433.167C240.856 433.204 240.933 433.263 241.036 433.345C241.242 433.508 241.551 433.76 241.941 434.1C242.723 434.78 243.83 435.811 245.099 437.187C247.638 439.941 250.805 444.058 253.304 449.495C255.145 453.503 256.602 457.337 258.046 460.961C259.475 464.546 260.898 467.947 262.634 470.897C264.381 473.867 266.49 476.462 269.337 478.396C272.196 480.339 275.675 481.531 280.031 481.884C289.261 482.632 298.166 479.288 305.919 474.035C313.677 468.778 320.418 461.524 325.395 454.181C341.641 430.21 342.694 407.571 336.468 391.63C332.23 380.78 324.564 372.946 315.988 370.218ZM296.865 433.998L286.789 443.354C286.476 442.565 286.117 441.731 285.718 440.911C284.786 439 283.469 436.791 281.795 435.596L280.947 434.991L279.967 435.337C277.986 436.036 276.272 437.543 274.83 439.263C273.367 441.008 272.048 443.139 270.898 445.335C268.6 449.727 266.861 454.611 265.953 457.787L267.876 458.337L269.799 458.886C270.651 455.904 272.298 451.286 274.442 447.189C275.514 445.141 276.681 443.281 277.896 441.832C278.729 440.838 279.526 440.108 280.267 439.629C280.862 440.346 281.503 441.393 282.122 442.663C282.985 444.435 283.651 446.308 283.991 447.465L284.903 450.564L287.271 448.366L297.188 439.157L300.26 450.081L300.884 452.297L302.991 451.37L310.393 448.112L309.028 454.393L310.982 454.817L312.937 455.243L315.136 445.126L315.971 441.289L312.376 442.87L303.486 446.781L300.151 434.923L299.266 431.771L296.865 433.998ZM183.45 427.666C186.942 433.719 194.111 440.727 201.048 446.165C204.542 448.904 208.05 451.303 211.107 453.027C212.635 453.889 214.081 454.601 215.379 455.102C216.64 455.588 217.915 455.938 219.052 455.938H220.109L220.704 455.065C226.107 447.141 230.426 437.124 231.924 433.08L228.47 431.157C228.604 430.984 228.682 431.014 228.426 431.106C228.192 431.191 227.814 431.28 227.26 431.344C226.153 431.471 224.621 431.472 222.733 431.352C218.975 431.111 214.126 430.411 209.115 429.535C199.103 427.784 188.725 425.38 185.602 424.711L181.201 423.769L183.45 427.666ZM132.192 415.742L130.343 425.604L122.948 416.601L120.802 413.987L119.546 417.127L117.438 422.394L112.51 415.001L109.182 417.22L116.22 427.776L118.328 430.94L119.74 427.41L122.003 421.752L129.974 431.455L132.695 434.769L133.485 430.555L135.649 419.008L145.633 423.643L146.475 421.828L147.316 420.015L135.001 414.296L132.667 413.213L132.192 415.742ZM126.396 385.196C129.914 389.911 136.269 397.31 143.977 404.297C151.657 411.259 160.842 417.961 170.022 421.083L170.667 419.189L171.311 417.296C162.897 414.435 154.194 408.16 146.663 401.333C139.159 394.53 132.977 387.326 129.604 382.804L126.396 385.196ZM89.4648 318.142C86.9059 319.933 83.562 323.92 80.6816 329.328C77.7706 334.793 75.235 341.89 74.4365 350.046C72.8292 366.464 78.2923 386.88 101.182 406.628L102.488 405.113L103.795 403.6C81.8185 384.64 76.9453 365.468 78.417 350.436C79.1581 342.866 81.5157 336.272 84.2129 331.208C86.1174 327.632 88.1451 324.906 89.8213 323.147C90.7765 325.595 92.1043 329.124 93.6475 333.001C95.8241 338.47 98.4056 344.549 100.771 348.516L102.488 347.491L104.206 346.468C102.026 342.81 99.5495 337.012 97.3643 331.521C95.2297 326.158 93.3366 320.986 92.4395 318.968L91.4541 316.75L89.4648 318.142ZM365.781 310.071C363.468 319.614 355.679 343.667 343.17 363.125L344.853 364.206L346.535 365.288C359.362 345.335 367.29 320.826 369.669 311.015L367.726 310.543L365.781 310.071ZM140.268 247.098C135.63 268.522 138.125 283.919 143.382 295.303C148.634 306.677 156.622 313.993 162.866 319.282L162.875 319.29L162.886 319.298C170.324 324.986 176.544 330.865 187.044 336.226C197.554 341.591 212.347 346.442 237.011 350.186L237.032 350.188L237.053 350.19C285.206 353.377 308.771 319.64 314.536 302.344L314.964 301.062L313.805 301.757C302.219 308.708 266.865 318.562 218.777 301.714L218.761 301.708L218.744 301.704L216.444 301.062C192.939 294.371 177.482 286.167 166.308 277.11C154.773 267.762 147.77 257.483 141.18 246.938L140.527 245.895L140.268 247.098ZM372.9 223.741C375.725 230.945 380.168 250.378 375.03 269.559L378.894 270.594C380.924 263.013 381.54 255.419 381.358 248.478C427.3 251.604 452.658 256.442 462.185 259.138L457.32 264.307L455.597 266.138L457.769 267.404L470.41 274.778L457.883 281.043L456.917 281.525L456.79 282.599L455.314 295.138C452.458 294.242 448.116 292.95 443.866 291.888L443.083 291.692L442.384 292.095C436.714 295.359 424.492 300.697 411.38 306.087C398.319 311.455 384.526 316.816 375.815 320.109L376.522 321.979L377.229 323.851C385.967 320.547 399.797 315.173 412.9 309.787C425.449 304.629 437.473 299.402 443.663 295.966C448.984 297.327 454.318 298.996 456.385 299.685L458.717 300.462L459.004 298.021L460.636 284.138L475.506 276.703L478.813 275.05L475.619 273.187L461.956 265.216L467.271 259.57L469.325 257.388L466.521 256.328C459.702 253.752 433.416 247.986 381.162 244.454C380.466 234.655 378.301 226.555 376.625 222.28L372.9 223.741ZM65.3379 121.355L67.502 132.18C65.4261 132.217 62.392 132.32 59.3057 132.607C56.8979 132.831 54.3928 133.173 52.2598 133.702C51.1933 133.967 50.1714 134.291 49.2803 134.694C48.4112 135.088 47.5305 135.617 46.8799 136.36L45.1748 138.309L47.4902 139.467C55.0732 143.258 59.5524 149.017 61.334 152.206L51.8398 161.306L49.5869 163.465L52.4893 164.61L68.5312 170.942L98.1621 224.897C91.3675 241.639 84.9932 266.356 86.4141 295.247L90.4102 295.05C88.9982 266.339 95.4735 241.847 102.222 225.535C105.445 217.744 108.711 211.867 111.17 208.314L107.881 206.037C105.66 209.245 102.926 214.063 100.158 220.223L71.6914 168.385L71.3438 167.753L70.6729 167.487L56.8594 162.034L65.1641 154.077L66.1641 153.118L65.6182 151.845C64.3109 148.795 60.1065 142.497 52.585 137.753C52.7886 137.695 53.002 137.639 53.2236 137.584C55.0764 137.124 57.3564 136.806 59.6768 136.59C64.3058 136.159 68.8455 136.159 69.9385 136.159H72.3779L71.8994 133.767L69.9951 124.248C77.0395 127.201 86.145 131.2 93.9111 134.999C98.4741 137.231 102.525 139.37 105.416 141.172C106.87 142.078 107.963 142.856 108.669 143.483C109.017 143.793 109.215 144.017 109.312 144.153C109.465 145.106 110.289 145.836 111.285 145.836C112.389 145.836 113.285 144.94 113.285 143.836C113.285 142.992 112.903 142.303 112.586 141.854C112.245 141.371 111.8 140.914 111.324 140.492C110.37 139.645 109.056 138.727 107.532 137.777C104.466 135.867 100.27 133.656 95.6689 131.405C86.4521 126.896 75.412 122.128 68.0576 119.112L64.6064 117.697L65.3379 121.355ZM321.29 229.614C309.924 236.14 292.853 246.15 278.577 254.97C271.44 259.379 264.995 263.494 260.311 266.729C257.97 268.346 256.059 269.749 254.719 270.863C254.05 271.419 253.511 271.913 253.13 272.332C252.94 272.541 252.78 272.742 252.661 272.931C252.548 273.111 252.445 273.322 252.423 273.545C252.384 273.938 252.488 274.35 252.671 274.752C252.856 275.157 253.137 275.584 253.493 276.022C254.207 276.899 255.263 277.868 256.596 278.855C259.265 280.833 263.104 282.931 267.709 284.567C276.917 287.84 289.257 289.292 301.499 284.173L301.565 284.145L301.621 284.1C313.358 274.578 318.808 264.698 321.145 255.352C323.477 246.022 322.696 237.256 322.037 230.003L321.967 229.226L321.29 229.614ZM278.933 256C278.933 257.337 278.844 259.512 278.577 261.712C278.313 263.895 277.865 266.17 277.12 267.66C276.756 268.388 276.393 268.893 276.014 269.186C275.606 269.5 275.151 269.581 274.728 269.387C274.359 269.217 274.104 268.877 273.935 268.568C273.757 268.246 273.63 267.88 273.549 267.558L273.531 267.486L273.535 267.413L273.975 258.176L273.988 257.897L274.231 257.763L278.19 255.562L278.933 255.15V256ZM182.672 193.589C169.389 204.215 164.261 214.987 162.644 223.855C161.029 232.71 162.924 239.621 163.583 242.477L163.601 242.554L163.642 242.622C171.636 255.946 181.77 260.976 190.261 262.54C198.728 264.1 205.525 262.209 206.895 261.753L207.575 261.526L207.127 260.966C207.126 260.965 207.125 260.964 207.124 260.963C207.122 260.96 207.119 260.956 207.116 260.951C207.11 260.941 207.1 260.927 207.09 260.909C207.068 260.873 207.042 260.825 207.011 260.765C206.947 260.642 206.869 260.478 206.777 260.273C206.594 259.864 206.362 259.304 206.086 258.609C205.534 257.219 204.811 255.3 203.959 252.975C202.255 248.324 200.037 242.057 197.631 235.162C192.768 221.225 187.143 204.726 183.458 193.819L183.229 193.143L182.672 193.589ZM195.774 230.329L197.534 235.607L197.571 235.72L197.555 235.836C197.327 237.431 196.542 240.003 195.711 242.107C195.295 243.161 194.858 244.123 194.461 244.802C194.265 245.136 194.062 245.431 193.858 245.634C193.758 245.734 193.63 245.839 193.478 245.902C193.313 245.971 193.094 245.998 192.878 245.89L192.805 245.854L192.747 245.796C192.179 245.228 191.946 244.305 191.835 243.415C191.72 242.499 191.72 241.477 191.721 240.604V240.562L191.728 240.521C192.172 237.853 193.503 232.962 194.853 230.264L195.393 229.184L195.774 230.329ZM132.174 31.4062C131.27 38.198 131.023 60.214 131.883 86.2236C132.745 112.297 134.727 142.63 138.337 166.132L140.313 165.828L142.291 165.524C138.717 142.254 136.741 112.105 135.881 86.0918C135.121 63.0983 135.238 43.5258 135.861 34.8281C136.866 35.449 138.049 36.2541 139.402 37.2441C142.048 39.18 145.219 41.728 148.787 44.752C155.921 50.7982 164.565 58.6855 173.636 67.2471C191.773 84.3667 211.546 104.119 224.217 117.082L227.475 114.871C227.424 114.758 227.329 114.43 227.259 113.792C227.192 113.187 227.16 112.424 227.163 111.523C227.17 109.723 227.318 107.499 227.55 105.123C227.873 101.808 228.355 98.27 228.812 95.2998L248.987 112.372L250.852 113.949L252.031 111.812L257.362 102.146C259.811 106.34 263.207 112.068 264.891 114.594L265.86 116.049L267.432 115.282C293.505 102.563 323.046 94.4139 337.789 91.1885C337.397 91.9455 336.946 92.8051 336.438 93.7549C334.816 96.7851 332.709 100.596 330.427 104.665C325.862 112.802 320.61 121.943 317.168 127.876L315.22 131.234L319.086 130.871L352.176 127.756C348.489 133.044 343.415 140.324 341.452 143.128L339.133 146.441L343.174 146.273C419.664 143.086 465 145.199 482.188 147.021L393.253 223.251L395.856 226.288L488.228 147.112L491.552 144.264L487.222 143.616C474.479 141.712 428.98 138.853 347.035 142.115C350.305 137.433 355.314 130.252 357.927 126.504L360.394 122.965L356.099 123.369L322.569 126.525C325.878 120.795 330.131 113.368 333.915 106.622C336.203 102.543 338.325 98.7061 339.965 95.6416C341.569 92.6441 342.799 90.2287 343.211 89.0957L344.417 85.7793L340.952 86.4482C328.173 88.9169 295.945 97.2011 267.277 110.914C264.92 107.171 260.972 100.421 259.05 97.0898L257.278 94.0195L255.566 97.123L249.707 107.741L228.698 89.9648L226.034 87.71L225.437 91.1484C224.844 94.5542 224.044 99.862 223.568 104.734C223.377 106.696 223.237 108.613 223.186 110.318C210.549 97.4784 192.803 79.8383 176.381 64.3379C167.289 55.756 158.585 47.8133 151.373 41.7002C147.768 38.6447 144.517 36.0298 141.764 34.0156C139.052 32.0321 136.69 30.5293 134.898 29.8125L132.513 28.8584L132.174 31.4062ZM169.021 144.627C164.733 146.402 154.565 151.253 148.676 156.406L149.993 157.911L151.31 159.416C156.68 154.717 166.335 150.068 170.552 148.323L169.787 146.475L169.021 144.627Z" fill="#D9D9D9"/>
</svg>
